<?xml version="1.0" encoding="UTF-8" standalone="no"?><svg xmlns="http://www.w3.org/2000/svg" xmlns:xlink="http://www.w3.org/1999/xlink" fill="#000000" height="500" preserveAspectRatio="xMidYMid meet" version="1" viewBox="0.2 0.1 401.4 500.0" width="401.4" zoomAndPan="magnify"><g fill-rule="evenodd"><g id="change1_1"><path d="M 201.144531 76.117188 C 201.417969 75.898438 201.566406 75.828125 201.632812 75.714844 C 201.769531 75.464844 201.867188 75.191406 201.980469 74.929688 C 205.316406 67.289062 210.179688 60.84375 216.832031 55.761719 C 223.152344 50.933594 230.257812 47.859375 237.976562 46.125 C 240.242188 45.609375 242.53125 45.195312 244.816406 44.738281 C 243.878906 44.09375 242.941406 43.707031 241.972656 43.507812 C 239.007812 42.894531 236.015625 42.425781 233.058594 41.769531 C 230.695312 41.242188 229.523438 39.722656 229.378906 37.320312 C 229.046875 31.742188 227.527344 26.519531 224.769531 21.65625 C 222.410156 17.492188 219.074219 14.324219 214.761719 12.339844 C 207.585938 9.042969 200.066406 8.804688 192.476562 10.519531 C 187.632812 11.613281 183.410156 14.011719 180.15625 17.800781 C 175.675781 23.023438 173.585938 29.300781 172.855469 36.046875 C 172.449219 39.820312 170.472656 41.917969 166.679688 42.242188 C 165.601562 42.335938 164.511719 42.453125 163.464844 42.703125 C 161.40625 43.191406 159.375 43.785156 157.328125 44.335938 C 157.347656 44.488281 157.363281 44.640625 157.382812 44.792969 C 166.824219 46.078125 175.753906 48.789062 183.683594 54.21875 C 191.71875 59.71875 197.433594 67.109375 201.144531 76.117188 Z M 201.328125 419.007812 C 200.894531 419.933594 200.578125 420.503906 200.34375 421.105469 C 197.40625 428.582031 193.054688 435.066406 187.007812 440.398438 C 182.316406 444.535156 176.90625 447.339844 170.957031 449.1875 C 165.230469 450.964844 159.359375 451.546875 153.390625 451.378906 C 152.273438 451.347656 151.152344 451.375 150.03125 451.375 C 150.800781 452.308594 151.671875 452.914062 152.589844 453.4375 C 157.121094 456.019531 162.027344 457.386719 167.210938 457.851562 C 170.421875 458.144531 172.488281 460.042969 172.8125 462.625 C 173.152344 465.339844 173.441406 468.101562 174.183594 470.71875 C 177.019531 480.765625 183.152344 487.585938 193.675781 489.816406 C 198.46875 490.832031 203.332031 490.8125 208.128906 489.917969 C 213.523438 488.914062 218.308594 486.511719 221.953125 482.328125 C 226.527344 477.074219 228.8125 470.730469 229.234375 463.894531 C 229.453125 460.332031 232.332031 458.078125 235.339844 457.808594 C 240.671875 457.335938 245.679688 455.753906 250.304688 453.03125 C 250.980469 452.632812 251.601562 452.125 252.253906 451.667969 C 227.664062 452.59375 210.488281 442.371094 201.328125 419.007812 Z M 348.964844 145.535156 C 349.105469 146.609375 349.222656 147.304688 349.285156 148.003906 C 349.636719 151.882812 350.144531 155.761719 350.25 159.652344 C 350.320312 162.15625 349.882812 164.691406 349.496094 167.183594 C 348.480469 173.722656 346.003906 179.6875 342.1875 185.09375 C 338.230469 190.691406 333.152344 195.027344 327.277344 198.492188 C 326.566406 198.910156 325.898438 199.394531 325.046875 199.957031 C 326.738281 200.796875 328.179688 201.484375 329.589844 202.21875 C 333.777344 204.410156 337.644531 207.085938 341.09375 210.3125 C 347.90625 216.6875 352.308594 224.445312 354.027344 233.632812 C 354.8125 237.816406 355.472656 242.027344 354.84375 246.328125 C 354.664062 247.527344 354.8125 248.773438 354.8125 250.296875 C 355.234375 249.847656 355.414062 249.71875 355.515625 249.539062 C 358.105469 245.003906 359.488281 240.097656 359.925781 234.917969 C 360.152344 232.191406 362.882812 229.457031 365.464844 229.449219 C 367.476562 229.441406 369.492188 229.542969 371.488281 229.367188 C 380.8125 228.546875 387.492188 223.582031 390.40625 215.117188 C 393.367188 206.527344 393.453125 197.75 391.082031 189.054688 C 388.515625 179.644531 382.171875 173.800781 371.46875 172.75 C 369.386719 172.546875 367.285156 172.519531 365.195312 172.402344 C 362.210938 172.238281 360.261719 170.5625 359.960938 167.898438 C 359.8125 166.605469 359.710938 165.308594 359.503906 164.027344 C 358.71875 159.101562 357.054688 154.480469 354.140625 150.421875 C 352.863281 148.648438 351.664062 146.660156 348.964844 145.535156 Z M 58.03125 259.734375 C 57.8125 257.339844 57.492188 255.484375 57.507812 253.632812 C 57.535156 249.292969 57.59375 244.945312 57.875 240.617188 C 58.328125 233.664062 60.402344 227.101562 63.675781 221.011719 C 67.699219 213.53125 73.511719 207.636719 80.824219 203.257812 C 81.226562 203.015625 81.558594 202.660156 82.097656 202.210938 C 79.890625 200.988281 77.835938 199.941406 75.871094 198.746094 C 65.324219 192.328125 58.390625 183.109375 54.902344 171.300781 C 52.613281 163.566406 52.378906 155.625 52.71875 147.640625 C 52.746094 147.054688 52.824219 146.46875 52.878906 145.882812 C 51.652344 146.429688 50.714844 147.097656 49.976562 147.9375 C 45.117188 153.488281 42.855469 160.109375 42.261719 167.34375 C 41.957031 171.09375 40.660156 172.488281 36.941406 172.785156 C 31.464844 173.222656 26.269531 174.644531 21.519531 177.488281 C 17.238281 180.050781 14.039062 183.5625 12.046875 188.175781 C 9.34375 194.429688 8.984375 200.941406 10.113281 207.535156 C 11.3125 214.539062 14.652344 220.3125 20.785156 224.195312 C 25.519531 227.1875 30.746094 228.796875 36.296875 229.304688 C 39.300781 229.582031 42.117188 231.871094 42.339844 235.21875 C 42.816406 242.375 45.230469 248.933594 50.132812 254.347656 C 52.175781 256.605469 54.699219 258.269531 58.03125 259.734375 Z M 106.140625 229.3125 C 114.691406 229.328125 123.246094 229.351562 131.796875 229.355469 C 143.46875 229.363281 155.136719 229.355469 166.804688 229.359375 C 170.355469 229.363281 171.734375 230.449219 172.507812 233.980469 C 172.734375 235.023438 172.777344 236.125 172.777344 237.203125 C 172.789062 279.3125 172.785156 321.417969 172.789062 363.527344 C 172.789062 374.472656 172.8125 385.414062 172.828125 396.359375 C 172.519531 398.894531 171.050781 400.34375 168.605469 400.925781 C 167.78125 401.121094 166.992188 401.4375 166.1875 401.699219 C 163.0625 401.460938 160.175781 402.441406 157.324219 403.480469 C 152.761719 405.144531 148.800781 407.679688 145.703125 411.527344 C 143.039062 414.835938 141.546875 418.609375 140.773438 422.714844 C 139.664062 428.570312 139.945312 434.359375 141.675781 440.082031 C 142.007812 441.1875 142.546875 441.699219 143.738281 441.902344 C 150.269531 442.992188 156.816406 443.226562 163.355469 442.136719 C 175.640625 440.082031 184.605469 433.363281 190.28125 422.355469 C 194.945312 413.3125 196.777344 403.625 196.765625 393.449219 C 196.691406 331.574219 196.730469 269.695312 196.730469 207.824219 C 196.730469 207.117188 196.730469 206.410156 196.730469 205.585938 C 195.878906 205.535156 195.242188 205.472656 194.609375 205.472656 C 163.058594 205.46875 131.503906 205.46875 99.949219 205.480469 C 99.230469 205.480469 98.507812 205.5625 97.800781 205.691406 C 93.550781 206.460938 89.644531 208.109375 85.929688 210.285156 C 75.542969 216.351562 69.449219 225.425781 67.03125 237.105469 C 65.785156 243.128906 66.023438 249.21875 66.253906 255.292969 C 66.316406 257.015625 66.792969 258.714844 66.949219 260.4375 C 67.058594 261.683594 67.683594 262.046875 68.804688 261.980469 C 71.328125 261.828125 73.863281 261.789062 76.378906 261.539062 C 79.582031 261.21875 82.570312 260.109375 85.386719 258.582031 C 91.109375 255.484375 94.527344 250.488281 96.660156 244.519531 C 97.140625 243.183594 97.257812 241.722656 97.539062 240.316406 C 97.789062 239.898438 98.183594 239.503906 98.257812 239.054688 C 98.503906 237.640625 98.679688 236.207031 98.785156 234.773438 C 98.996094 231.875 100.132812 230.425781 102.945312 229.773438 C 103.988281 229.53125 105.074219 229.460938 106.140625 229.3125 Z M 229.339844 395.503906 C 229.355469 394.34375 229.382812 393.183594 229.382812 392.023438 C 229.382812 340.636719 229.382812 289.246094 229.386719 237.859375 C 229.386719 236.628906 229.324219 235.390625 229.4375 234.167969 C 229.734375 230.933594 231.441406 229.402344 234.691406 229.359375 C 235.632812 229.351562 236.574219 229.359375 237.519531 229.359375 C 257.089844 229.351562 276.65625 229.34375 296.226562 229.335938 C 297.441406 229.46875 298.660156 229.566406 299.871094 229.742188 C 301.355469 229.960938 302.402344 230.824219 302.871094 232.230469 C 303.164062 233.105469 303.21875 234.058594 303.386719 234.976562 C 303.675781 236.519531 303.972656 238.058594 304.265625 239.597656 C 304.832031 244.238281 306.847656 248.292969 309.417969 252.097656 C 311.585938 255.304688 314.59375 257.589844 318.019531 259.226562 C 323.449219 261.824219 329.285156 262.386719 335.1875 261.871094 C 337.683594 261.65625 340.121094 260.851562 342.582031 260.3125 C 343.527344 260.105469 344.058594 259.5625 344.296875 258.59375 C 346.035156 251.601562 347.101562 244.5625 345.996094 237.34375 C 344.847656 229.832031 341.78125 223.269531 336.421875 217.816406 C 332.828125 214.15625 328.652344 211.3125 324.070312 209.089844 C 319.089844 206.675781 313.960938 204.734375 308.230469 205.445312 C 307.15625 205.578125 306.058594 205.46875 304.96875 205.46875 C 272.847656 205.46875 240.722656 205.46875 208.597656 205.46875 C 207.753906 205.46875 206.90625 205.46875 205.875 205.46875 C 205.875 206.453125 205.875 207.160156 205.875 207.871094 C 205.875 269.726562 205.875 331.582031 205.878906 393.433594 C 205.878906 395.828125 205.71875 398.246094 206.003906 400.605469 C 206.761719 406.9375 208.1875 413.125 210.691406 419.019531 C 213.398438 425.40625 217.335938 430.886719 222.816406 435.179688 C 230.222656 440.988281 238.9375 442.734375 248.058594 442.914062 C 251.214844 442.976562 254.386719 442.40625 257.558594 442.164062 C 259.261719 442.035156 260.246094 441.347656 260.71875 439.542969 C 262.582031 432.355469 262.636719 425.214844 260.179688 418.191406 C 258.304688 412.816406 254.78125 408.707031 249.820312 405.816406 C 245.359375 403.21875 240.523438 401.929688 235.453125 401.351562 C 234.679688 401.210938 233.90625 401.050781 233.125 400.941406 C 231.167969 400.660156 230.039062 399.515625 229.644531 397.625 C 229.496094 396.925781 229.4375 396.210938 229.339844 395.503906 Z M 295.519531 172.808594 C 294.574219 172.792969 293.636719 172.765625 292.691406 172.765625 C 273.707031 172.765625 254.722656 172.726562 235.742188 172.796875 C 231.527344 172.8125 230.453125 171.011719 229.613281 168 C 229.386719 167.183594 229.394531 166.285156 229.394531 165.425781 C 229.378906 155.859375 229.390625 146.296875 229.382812 136.730469 C 229.375 126.804688 229.351562 116.878906 229.335938 106.949219 C 229.035156 103.273438 229.847656 100.203125 233.742188 98.792969 C 239.328125 98.574219 244.585938 97.148438 249.464844 94.414062 C 254.019531 91.863281 257.445312 88.28125 259.519531 83.421875 C 262.28125 76.941406 262.605469 70.269531 261.335938 63.433594 C 260.695312 59.984375 259.53125 56.761719 257.503906 53.851562 C 256.882812 52.964844 256.238281 52.5625 255.183594 52.648438 C 253.3125 52.8125 251.4375 52.914062 249.566406 53.046875 C 243.984375 53.433594 238.554688 54.546875 233.308594 56.507812 C 227.050781 58.851562 221.53125 62.28125 217.019531 67.296875 C 209.71875 75.414062 206.527344 85.125 205.898438 95.808594 C 205.703125 99.132812 205.875 102.476562 205.875 105.8125 C 205.875 135.1875 205.875 164.558594 205.875 193.933594 C 205.875 194.777344 205.875 195.621094 205.875 196.65625 C 206.78125 196.65625 207.421875 196.65625 208.058594 196.65625 C 241.128906 196.65625 274.199219 196.65625 307.269531 196.648438 C 308.058594 196.648438 308.863281 196.582031 309.636719 196.425781 C 315.621094 195.214844 320.972656 192.542969 325.9375 189.089844 C 333.421875 183.894531 338.515625 176.996094 340.5625 168.019531 C 341.628906 163.339844 342.121094 158.597656 341.289062 153.816406 C 340.617188 149.914062 339.824219 146.027344 339.089844 142.132812 C 338.886719 141.074219 338.3125 140.660156 337.179688 140.492188 C 333.121094 139.894531 329.078125 139.960938 325.070312 140.640625 C 319.8125 141.535156 315.050781 143.714844 311.425781 147.671875 C 306.019531 153.570312 303.613281 160.734375 303.421875 168.683594 C 302.320312 171.328125 300.132812 172.382812 297.472656 172.726562 C 296.824219 172.808594 296.167969 172.78125 295.519531 172.808594 Z M 105.433594 172.8125 C 103.054688 172.816406 101.121094 171.9375 99.761719 169.945312 C 99.398438 169.417969 99.089844 168.855469 98.757812 168.3125 C 97.605469 145.296875 80.214844 136.742188 62.175781 141.324219 C 61.929688 143.3125 61.460938 145.382812 61.457031 147.449219 C 61.449219 152.296875 61.515625 157.148438 61.835938 161.984375 C 62.117188 166.265625 63.414062 170.355469 65.179688 174.261719 C 69.675781 184.230469 77.335938 190.835938 87.355469 194.847656 C 90.667969 196.167969 94.078125 196.964844 97.726562 196.710938 C 100.6875 196.507812 103.671875 196.65625 106.644531 196.65625 C 135.800781 196.65625 164.957031 196.65625 194.113281 196.65625 C 194.949219 196.65625 195.785156 196.65625 196.730469 196.65625 C 196.730469 195.734375 196.730469 195.160156 196.730469 194.582031 C 196.742188 162.671875 196.742188 130.757812 196.785156 98.847656 C 196.792969 91.582031 195.414062 84.660156 192.503906 77.980469 C 189.28125 70.570312 184.273438 64.71875 177.46875 60.488281 C 168.085938 54.664062 157.609375 52.855469 146.757812 52.644531 C 145.863281 52.628906 145.21875 52.871094 144.804688 53.695312 C 143.839844 55.625 142.632812 57.46875 141.898438 59.484375 C 139.832031 65.191406 139.660156 71.105469 140.691406 77.03125 C 141.898438 83.964844 145.203125 89.671875 151.238281 93.519531 C 156.347656 96.777344 161.964844 98.460938 168.023438 98.765625 C 169.1875 98.824219 170.332031 99.34375 171.484375 99.648438 C 172.628906 101.222656 173.019531 102.960938 172.816406 104.902344 C 172.695312 106.03125 172.820312 107.1875 172.832031 108.328125 C 172.816406 109.269531 172.789062 110.214844 172.789062 111.15625 C 172.785156 129.9375 172.726562 148.71875 172.851562 167.496094 C 172.871094 170.453125 170.480469 172.886719 167.429688 172.859375 C 151.984375 172.710938 136.539062 172.769531 121.09375 172.769531 C 115.875 172.765625 110.652344 172.792969 105.433594 172.8125 Z M 368.34375 163.765625 C 370.785156 164.019531 373.027344 164.105469 375.210938 164.515625 C 388.011719 166.917969 396.035156 174.558594 399.523438 187.019531 C 401.15625 192.859375 401.597656 198.855469 401.195312 204.878906 C 400.726562 211.953125 399.242188 218.777344 395.261719 224.816406 C 390.996094 231.289062 384.988281 235.320312 377.515625 237.121094 C 375.140625 237.691406 372.664062 237.859375 370.222656 238.097656 C 368.46875 238.269531 368.441406 238.179688 368.039062 240 C 367.09375 244.242188 365.929688 248.394531 363.925781 252.300781 C 359.070312 261.746094 351.40625 267.511719 341.101562 269.714844 C 333.242188 271.390625 325.417969 271.101562 317.777344 268.460938 C 309.992188 265.765625 304.113281 260.765625 300.074219 253.574219 C 297.679688 249.304688 296.230469 244.703125 295.242188 239.933594 C 294.859375 238.074219 294.820312 238.058594 293.0625 238.058594 C 275.21875 238.050781 257.371094 238.054688 239.527344 238.058594 C 239.171875 238.058594 238.808594 238.097656 238.144531 238.140625 C 238.125 238.980469 238.078125 239.8125 238.078125 240.644531 C 238.074219 271.039062 238.074219 301.433594 238.074219 331.828125 C 238.074219 351.125 238.074219 370.421875 238.074219 389.714844 C 238.074219 390.222656 238.109375 390.734375 238.066406 391.238281 C 237.976562 392.355469 238.363281 392.882812 239.570312 393.136719 C 242.25 393.707031 244.929688 394.367188 247.519531 395.25 C 252.292969 396.886719 256.585938 399.386719 260.292969 402.863281 C 265.269531 407.53125 268.277344 413.328125 269.699219 419.898438 C 271.445312 427.96875 271.109375 436.003906 268.347656 443.847656 C 265.621094 451.570312 260.53125 457.28125 253.421875 461.257812 C 249.078125 463.6875 244.402344 465.15625 239.519531 465.960938 C 238.261719 466.171875 237.746094 466.5625 237.519531 467.941406 C 236.585938 473.550781 234.734375 478.855469 231.675781 483.699219 C 226.910156 491.238281 220.140625 495.949219 211.488281 497.953125 C 202.207031 500.101562 193.105469 499.636719 184.300781 495.804688 C 177.679688 492.921875 172.835938 488.097656 169.363281 481.828125 C 166.960938 477.480469 165.425781 472.8125 164.644531 467.929688 C 164.421875 466.546875 163.894531 466.222656 162.621094 465.992188 C 156.59375 464.894531 150.890625 462.9375 145.785156 459.398438 C 138.507812 454.355469 134.175781 447.390625 132.390625 438.832031 C 130.890625 431.640625 131.070312 424.453125 133.144531 417.367188 C 135.667969 408.746094 140.882812 402.226562 148.742188 397.917969 C 151.078125 396.640625 153.597656 395.644531 156.121094 394.789062 C 158.636719 393.9375 161.265625 393.425781 163.976562 392.730469 C 163.976562 341.316406 163.976562 289.847656 163.976562 238.222656 C 163.398438 238.164062 162.851562 238.0625 162.300781 238.0625 C 144.601562 238.050781 126.898438 238.050781 109.199219 238.054688 C 107.335938 238.054688 107.296875 238.070312 106.890625 240.054688 C 105.996094 244.394531 104.710938 248.59375 102.648438 252.535156 C 97.738281 261.925781 90.019531 267.566406 79.71875 269.796875 C 74.050781 271.023438 68.269531 271.191406 62.664062 270.136719 C 50.71875 267.882812 41.855469 261.296875 37.15625 249.847656 C 35.769531 246.464844 34.953125 242.832031 34.0625 239.265625 C 33.789062 238.167969 33.476562 237.703125 32.34375 237.507812 C 27.695312 236.703125 23.203125 235.398438 18.988281 233.1875 C 9.65625 228.292969 3.984375 220.621094 1.84375 210.394531 C 0.152344 202.3125 0.515625 194.300781 3.386719 186.46875 C 6.152344 178.929688 11.132812 173.320312 18.089844 169.421875 C 22.484375 166.953125 27.222656 165.414062 32.183594 164.609375 C 33.40625 164.410156 33.835938 164.015625 34.050781 162.769531 C 35.242188 155.90625 37.632812 149.542969 41.992188 143.988281 C 45.53125 139.480469 49.964844 136.152344 55.273438 134.164062 C 65.035156 130.503906 74.941406 130.425781 84.800781 133.824219 C 92.535156 136.496094 98.246094 141.621094 102.207031 148.738281 C 104.699219 153.214844 106.132812 158.046875 107.027344 163.0625 C 107.074219 163.335938 107.15625 163.601562 107.242188 163.960938 C 126.136719 163.960938 144.960938 163.960938 164.097656 163.960938 C 164.097656 163.128906 164.097656 162.363281 164.097656 161.59375 C 164.097656 144.476562 164.097656 127.355469 164.097656 110.234375 C 164.09375 107.183594 164.0625 107.191406 161.074219 106.605469 C 154.960938 105.398438 149.335938 103.066406 144.335938 99.269531 C 138.382812 94.746094 134.65625 88.734375 132.832031 81.597656 C 130.652344 73.058594 130.898438 64.535156 133.847656 56.175781 C 136.566406 48.464844 141.652344 42.742188 148.773438 38.785156 C 153.1875 36.332031 157.9375 34.835938 162.890625 34.027344 C 164.027344 33.84375 164.433594 33.449219 164.621094 32.300781 C 165.566406 26.613281 167.394531 21.242188 170.507812 16.332031 C 175.472656 8.5 182.601562 3.789062 191.554688 1.859375 C 199.554688 0.132812 207.527344 0.4375 215.289062 3.210938 C 222.964844 5.953125 228.777344 10.957031 232.734375 18.089844 C 235.1875 22.496094 236.730469 27.226562 237.542969 32.183594 C 237.742188 33.429688 238.175781 33.824219 239.394531 34.035156 C 246.105469 35.214844 252.371094 37.503906 257.828125 41.722656 C 262.714844 45.496094 266.316406 50.234375 268.269531 56.082031 C 272.136719 67.644531 271.777344 78.996094 265.960938 89.898438 C 263.085938 95.28125 258.691406 99.230469 253.398438 102.179688 C 249.382812 104.414062 245.097656 105.910156 240.554688 106.660156 C 239.78125 106.785156 239.027344 107.023438 238.183594 107.230469 C 238.183594 126.125 238.183594 144.953125 238.183594 163.925781 C 257.089844 163.925781 275.910156 163.925781 294.902344 163.925781 C 295.269531 162.246094 295.574219 160.484375 296.035156 158.765625 C 297.769531 152.3125 300.554688 146.417969 305.257812 141.542969 C 310.042969 136.582031 315.914062 133.671875 322.601562 132.328125 C 329.964844 130.851562 337.320312 131.035156 344.484375 133.277344 C 352.855469 135.898438 359.242188 141.105469 363.425781 148.890625 C 365.910156 153.515625 367.453125 158.464844 368.34375 163.765625" fill="#f8f3ef"/></g><g id="change2_1"><path d="M 218.765625 20.941406 C 213.347656 15.265625 206.460938 14.015625 199.015625 14.570312 C 198.804688 14.589844 198.589844 14.671875 198.386719 14.746094 C 197.003906 15.246094 196.070312 16.519531 196.089844 17.867188 C 196.113281 19.292969 197.195312 20.636719 198.683594 20.972656 C 199.238281 21.09375 199.835938 21.042969 200.410156 21.066406 C 202.070312 21.128906 203.761719 21.03125 205.394531 21.285156 C 211.363281 22.203125 215.472656 24.878906 216.734375 31.519531 C 216.789062 31.800781 216.839844 32.085938 216.9375 32.355469 C 217.503906 33.957031 218.929688 34.902344 220.433594 34.691406 C 222.058594 34.464844 223.214844 33.085938 223.25 31.339844 C 223.308594 28.523438 221.246094 23.542969 218.765625 20.941406 Z M 199.84375 479.933594 C 199.265625 479.898438 198.683594 479.832031 198.105469 479.832031 C 196.011719 479.832031 194.4375 481.160156 194.351562 482.96875 C 194.269531 484.679688 195.605469 486.226562 197.617188 486.386719 C 203.703125 486.867188 209.503906 485.945312 214.546875 482.230469 C 218.617188 479.234375 220.785156 475.058594 221.464844 470.105469 C 221.734375 468.117188 220.554688 466.550781 218.777344 466.25 C 217.121094 465.960938 215.621094 467.027344 215.089844 468.894531 C 214.894531 469.59375 214.785156 470.3125 214.59375 471.007812 C 213.578125 474.683594 211.34375 477.367188 207.710938 478.542969 C 205.191406 479.359375 202.519531 479.710938 199.921875 480.269531 C 199.894531 480.15625 199.867188 480.042969 199.84375 479.933594 Z M 389.132812 198.863281 C 388.742188 197.351562 387.28125 196.40625 385.863281 196.511719 C 384.4375 196.609375 383.15625 197.746094 382.882812 199.246094 C 382.777344 199.808594 382.859375 200.398438 382.835938 200.980469 C 382.765625 202.640625 382.839844 204.328125 382.585938 205.960938 C 381.949219 210.046875 380.4375 213.691406 376.515625 215.710938 C 375.183594 216.398438 373.671875 216.753906 372.214844 217.15625 C 370.058594 217.746094 368.875 219.210938 369.222656 220.996094 C 369.578125 222.835938 371.207031 223.910156 373.351562 223.585938 C 377.257812 223 380.71875 221.433594 383.527344 218.613281 C 387.964844 214.171875 389.289062 208.550781 389.53125 202.007812 C 389.445312 201.292969 389.433594 200.042969 389.132812 198.863281 Z M 19.804688 196.851562 C 19.710938 195.007812 18.410156 193.585938 16.746094 193.464844 C 15.183594 193.347656 13.734375 194.496094 13.332031 196.222656 C 13.21875 196.710938 13.132812 197.234375 13.167969 197.730469 C 13.347656 200.324219 13.363281 202.957031 13.832031 205.5 C 14.550781 209.425781 16.292969 212.921875 19.222656 215.722656 C 22.152344 218.523438 25.671875 220.117188 29.675781 220.582031 C 31.558594 220.800781 33.046875 219.652344 33.382812 217.960938 C 33.707031 216.3125 32.65625 214.757812 30.824219 214.214844 C 30.058594 213.992188 29.261719 213.886719 28.496094 213.664062 C 25.011719 212.648438 22.542969 210.488281 21.164062 207.101562 C 20.101562 204.507812 19.710938 201.804688 19.8125 199.019531 C 19.8125 198.300781 19.84375 197.574219 19.804688 196.851562 Z M 172.816406 104.902344 C 172.695312 106.03125 172.820312 107.1875 172.832031 108.328125 C 177.175781 108.953125 179.050781 110.722656 179.851562 115.042969 C 180.046875 116.105469 180.171875 117.195312 180.175781 118.273438 C 180.203125 138.050781 180.210938 157.828125 180.21875 177.605469 C 180.21875 178.097656 180.15625 178.585938 180.105469 179.3125 C 179.222656 179.3125 178.445312 179.3125 177.671875 179.3125 C 159.492188 179.3125 141.304688 179.328125 123.125 179.292969 C 119.363281 179.285156 115.605469 179.109375 111.855469 178.933594 C 110.933594 178.890625 110 178.589844 109.113281 178.296875 C 106.085938 177.285156 105.25 176.011719 105.433594 172.8125 C 103.054688 172.816406 101.121094 171.9375 99.761719 169.945312 C 99.398438 169.417969 99.089844 168.855469 98.757812 168.3125 C 97.609375 168.671875 97.371094 169.738281 97.109375 170.65625 C 95.417969 176.507812 98.105469 182.523438 103.570312 185.304688 C 108.027344 187.570312 112.816406 188.085938 117.722656 188.066406 C 128.882812 188.03125 140.050781 188.007812 151.210938 187.996094 C 161.574219 187.984375 171.945312 188.078125 182.308594 187.953125 C 187.785156 187.886719 188.964844 185.253906 188.941406 181.378906 C 188.839844 162.238281 188.914062 143.101562 188.914062 123.960938 C 188.914062 121.570312 188.914062 119.175781 188.785156 116.789062 C 188.601562 113.277344 187.867188 109.875 185.921875 106.882812 C 182.53125 101.671875 177.578125 99.503906 171.484375 99.648438 C 172.628906 101.222656 173.019531 102.960938 172.816406 104.902344 Z M 297.472656 172.726562 C 296.824219 172.808594 296.167969 172.78125 295.519531 172.808594 C 295.484375 174.714844 294.4375 176.011719 292.742188 176.546875 C 290.6875 177.195312 288.554688 177.808594 286.421875 177.9375 C 282.742188 178.160156 279.039062 178.003906 275.347656 178.003906 C 257.890625 178.003906 240.433594 178.003906 222.972656 178.003906 C 222.324219 178.003906 221.675781 178.003906 220.84375 178.003906 C 220.769531 177.382812 220.648438 176.839844 220.648438 176.296875 C 220.648438 156.519531 220.65625 136.742188 220.695312 116.964844 C 220.699219 115.601562 220.871094 114.214844 221.175781 112.882812 C 221.984375 109.3125 224.191406 107.425781 227.816406 107.035156 C 228.320312 106.984375 228.828125 106.980469 229.335938 106.949219 C 229.035156 103.273438 229.847656 100.203125 233.742188 98.792969 C 231.652344 98.644531 229.558594 98.296875 227.484375 98.386719 C 220.539062 98.6875 215.003906 102.953125 213.175781 109.679688 C 212.386719 112.570312 212.035156 115.667969 212.019531 118.675781 C 211.921875 138.242188 211.964844 157.8125 211.964844 177.378906 C 211.964844 178.757812 211.980469 180.132812 211.984375 181.511719 C 211.992188 183.824219 213.101562 185.417969 215.289062 186.0625 C 216.589844 186.449219 217.984375 186.65625 219.339844 186.660156 C 229.773438 186.710938 240.210938 186.675781 250.644531 186.6875 C 261.515625 186.699219 272.386719 186.726562 283.257812 186.761719 C 288.164062 186.777344 292.941406 186.222656 297.394531 183.953125 C 303.800781 180.6875 305.402344 173.691406 303.421875 168.683594 C 302.320312 171.328125 300.132812 172.382812 297.472656 172.726562 Z M 233.125 400.941406 C 231.167969 400.660156 230.039062 399.515625 229.644531 397.625 C 229.496094 396.925781 229.4375 396.210938 229.339844 395.503906 C 228.542969 396.128906 227.792969 396.824219 226.941406 397.363281 C 225.558594 398.242188 224.574219 398.144531 223.453125 396.925781 C 221.699219 395.011719 220.628906 392.855469 220.617188 390.101562 C 220.464844 350.421875 220.246094 310.746094 220.046875 271.070312 C 219.96875 255.113281 219.890625 239.15625 219.8125 223.199219 C 219.808594 222.476562 219.8125 221.753906 219.8125 220.839844 C 220.414062 220.765625 220.957031 220.644531 221.5 220.644531 C 243.699219 220.636719 265.894531 220.660156 288.089844 220.613281 C 290.894531 220.605469 292.867188 221.847656 294.140625 224.121094 C 295.050781 225.738281 295.546875 227.589844 296.226562 229.335938 C 297.441406 229.46875 298.660156 229.566406 299.871094 229.742188 C 301.355469 229.960938 302.402344 230.824219 302.871094 232.230469 C 303.164062 233.105469 303.21875 234.058594 303.386719 234.976562 C 303.675781 236.519531 303.972656 238.058594 304.265625 239.597656 C 305.554688 238.753906 305.984375 237.472656 305.933594 236.027344 C 305.746094 230.453125 304.730469 225.050781 301.898438 220.171875 C 298.84375 214.902344 294.339844 211.933594 288.050781 211.941406 C 264.765625 211.96875 241.480469 211.941406 218.195312 211.980469 C 216.847656 211.984375 215.449219 212.25 214.15625 212.652344 C 212.238281 213.253906 211.242188 214.714844 211.136719 216.738281 C 211.101562 217.390625 211.117188 218.046875 211.121094 218.695312 C 211.21875 232.113281 211.339844 245.53125 211.410156 258.953125 C 211.558594 287.53125 211.683594 316.109375 211.804688 344.6875 C 211.875 360.28125 211.914062 375.878906 211.988281 391.472656 C 211.996094 392.546875 212.0625 393.667969 212.375 394.683594 C 213.328125 397.765625 214.882812 400.554688 217.113281 402.902344 C 219.464844 405.378906 222.269531 406.777344 225.8125 406.589844 C 229.894531 406.371094 232.824219 404.175781 235.453125 401.351562 C 234.679688 401.210938 233.90625 401.050781 233.125 400.941406 Z M 97.539062 240.316406 C 97.105469 239.359375 96.296875 238.398438 96.296875 237.445312 C 96.320312 231.183594 97.507812 225.164062 101.027344 219.855469 C 104.183594 215.097656 108.65625 212.777344 114.445312 212.800781 C 131.996094 212.863281 149.550781 212.824219 167.101562 212.824219 C 172.6875 212.824219 178.273438 212.78125 183.855469 212.851562 C 185.210938 212.867188 186.609375 213.085938 187.902344 213.480469 C 189.914062 214.089844 190.960938 215.585938 191.039062 217.710938 C 191.058594 218.21875 191.054688 218.726562 191.054688 219.230469 C 190.847656 259.558594 190.640625 299.886719 190.4375 340.210938 C 190.351562 357.691406 190.285156 375.171875 190.1875 392.648438 C 190.160156 398.449219 185.179688 405.402344 179.910156 407.03125 C 175.765625 408.3125 172.203125 406.984375 168.992188 404.414062 C 167.980469 403.605469 167.117188 402.609375 166.1875 401.699219 C 166.992188 401.4375 167.78125 401.121094 168.605469 400.925781 C 171.050781 400.34375 172.519531 398.894531 172.828125 396.359375 C 173.621094 396.988281 174.371094 397.6875 175.222656 398.230469 C 176.605469 399.113281 177.59375 399.023438 178.707031 397.800781 C 180.339844 396.007812 181.527344 394.015625 181.539062 391.421875 C 181.585938 379.378906 181.726562 367.339844 181.785156 355.304688 C 181.867188 337.824219 181.882812 320.34375 181.960938 302.863281 C 182.078125 276.609375 182.222656 250.355469 182.355469 224.105469 C 182.363281 223.269531 182.359375 222.4375 182.359375 221.507812 C 177.433594 221.507812 172.867188 221.507812 168.300781 221.507812 C 150.3125 221.511719 132.324219 221.550781 114.339844 221.476562 C 111.265625 221.460938 109.210938 222.804688 107.8125 225.316406 C 107.113281 226.570312 106.691406 227.976562 106.140625 229.3125 C 105.074219 229.460938 103.988281 229.53125 102.945312 229.773438 C 100.132812 230.425781 98.996094 231.875 98.785156 234.773438 C 98.679688 236.207031 98.503906 237.640625 98.257812 239.054688 C 98.183594 239.503906 97.789062 239.898438 97.539062 240.316406" fill="#f8f3ef"/></g></g></svg>